<svg width="256" height="256" viewBox="0 0 256 256" fill="none" xmlns="http://www.w3.org/2000/svg">
  <defs>
    <linearGradient id="grad" x1="0" y1="0" x2="1" y2="1">
      <stop offset="0%" stop-color="#00e5ff" />
      <stop offset="100%" stop-color="#0b3c80" />
    </linearGradient>
    <filter id="shadow" x="-20%" y="-20%" width="140%" height="140%">
      <feDropShadow dx="0" dy="10" stdDeviation="14" flood-color="#00e5ff" flood-opacity="0.2" />
    </filter>
  </defs>
  <rect width="256" height="256" rx="40" fill="#04070f" />
  <rect x="20" y="20" width="216" height="216" rx="32" fill="url(#grad)" fill-opacity="0.15" filter="url(#shadow)" />
  <path d="M63 64H88L108 131L128 64H152L132 149H108L88 82L68 149H44L63 64Z" fill="white" />
  <path d="M174 64H200L176 119L200 149H174L157 116L141 149H118L140 116L123 64H148L159 99L174 64Z" fill="url(#grad)" />
  <text x="128" y="222" text-anchor="middle" fill="#e0f2fe" font-size="18" font-family="Segoe UI, Arial, sans-serif" letter-spacing="3">D R K</text>
</svg>