<svg xmlns="http://www.w3.org/2000/svg" viewBox="0 0 240 240">
  <defs>
    <linearGradient id="bg" x1="0%" y1="0%" x2="100%" y2="100%">
      <stop offset="0%" stop-color="#4f46e5" />
      <stop offset="100%" stop-color="#ec4899" />
    </linearGradient>
    <filter id="shadow" x="-20%" y="-20%" width="140%" height="140%">
      <feDropShadow dx="0" dy="12" stdDeviation="12" flood-color="#000" flood-opacity="0.2" />
    </filter>
  </defs>
  <rect width="240" height="240" rx="48" fill="url(#bg)" />
  <g filter="url(#shadow)">
    <circle cx="120" cy="96" r="44" fill="#f8fafc" opacity="0.95" />
  </g>
  <path d="M84 186c0-28 18-44 36-44s36 16 36 44" fill="#f8fafc" opacity="0.95" />
  <path d="M120 68a28 28 0 1 0 0 56 28 28 0 0 0 0-56Zm0 8a20 20 0 1 1 0 40 20 20 0 0 1 0-40Z" fill="#4338ca" />
  <circle cx="120" cy="96" r="28" fill="#fff" opacity="0.95" />
  <path d="M105 109c0-8 12-8 12-8s12 0 12 8c0 18-12 18-12 18s-12 0-12-18Z" fill="#4338ca" opacity="0.85" />
</svg>
